<mxfile host="app.diagrams.net" agent="Mozilla/5.0 (Windows NT 10.0; Win64; x64) AppleWebKit/537.36 (KHTML, like Gecko) Chrome/135.0.0.0 Safari/537.36" version="26.2.13">
  <diagram name="PÃ¡gina-1" id="xsrb5iJu20GzeG8j-Rk5">
    <mxGraphModel dx="122" dy="486" grid="1" gridSize="10" guides="1" tooltips="1" connect="1" arrows="1" fold="1" page="1" pageScale="1" pageWidth="827" pageHeight="1169" math="0" shadow="0">
      <root>
        <mxCell id="0" />
        <mxCell id="1" parent="0" />
        <mxCell id="oBTIg1yz_-bCMmTLJF2G-58" value="req MultiStopRoute" style="shape=umlFrame;whiteSpace=wrap;html=1;pointerEvents=0;width=141;height=40;" parent="1" vertex="1">
          <mxGeometry x="864" y="30" width="1061" height="790" as="geometry" />
        </mxCell>
        <mxCell id="oBTIg1yz_-bCMmTLJF2G-59" value="&lt;p style=&quot;margin:0px;margin-top:4px;text-align:center;&quot;&gt;&lt;i&gt;&amp;lt;&amp;lt;requirement&amp;gt;&amp;gt;&lt;/i&gt;&lt;br&gt;&lt;b&gt;Program Multi-Stop Route&lt;/b&gt;&lt;/p&gt;&lt;hr size=&quot;1&quot; style=&quot;border-style:solid;&quot;&gt;&lt;p style=&quot;margin:0px;margin-left:4px;&quot;&gt;Id=&quot;MSR-1&quot;&lt;/p&gt;&lt;p style=&quot;margin:0px;margin-left:4px;&quot;&gt;text=&quot;&lt;span id=&quot;docs-internal-guid-2a9801a0-7fff-4f0c-7176-f9042768ee36&quot;&gt;&lt;span style=&quot;font-family: Arial, sans-serif; background-color: transparent; font-variant-numeric: normal; font-variant-east-asian: normal; font-variant-alternates: normal; font-variant-position: normal; font-variant-emoji: normal; vertical-align: baseline; white-space-collapse: preserve;&quot;&gt;&lt;font&gt;The system shall allow the user to program a route that includes multiple stops.&lt;/font&gt;&lt;/span&gt;&lt;/span&gt;&quot;&lt;/p&gt;" style="verticalAlign=top;align=left;overflow=fill;html=1;whiteSpace=wrap;" parent="1" vertex="1">
          <mxGeometry x="1224.5" y="459" width="180" height="120" as="geometry" />
        </mxCell>
        <mxCell id="dCrHYQqi8V4iQhvHre9M-2" style="edgeStyle=orthogonalEdgeStyle;rounded=0;orthogonalLoop=1;jettySize=auto;html=1;entryX=0.5;entryY=1;entryDx=0;entryDy=0;endArrow=circlePlus;endFill=0;" edge="1" parent="1" source="oBTIg1yz_-bCMmTLJF2G-65" target="oBTIg1yz_-bCMmTLJF2G-59">
          <mxGeometry relative="1" as="geometry">
            <Array as="points">
              <mxPoint x="1215" y="609" />
              <mxPoint x="1315" y="609" />
            </Array>
          </mxGeometry>
        </mxCell>
        <mxCell id="oBTIg1yz_-bCMmTLJF2G-65" value="&lt;p style=&quot;margin:0px;margin-top:4px;text-align:center;&quot;&gt;&lt;i&gt;&amp;lt;&amp;lt;requirement&amp;gt;&amp;gt;&lt;/i&gt;&lt;br&gt;&lt;b&gt;Input Multiple Destinations&lt;/b&gt;&lt;/p&gt;&lt;hr size=&quot;1&quot; style=&quot;border-style:solid;&quot;&gt;&lt;p style=&quot;margin:0px;margin-left:4px;&quot;&gt;Id=&quot;MSR-1.2&quot;&lt;/p&gt;&lt;p style=&quot;margin:0px;margin-left:4px;&quot;&gt;text=&quot;&lt;span id=&quot;docs-internal-guid-56202595-7fff-3ea5-3228-e6a6339e3663&quot;&gt;&lt;span style=&quot;font-family: Arial, sans-serif; background-color: transparent; font-variant-numeric: normal; font-variant-east-asian: normal; font-variant-alternates: normal; font-variant-position: normal; font-variant-emoji: normal; vertical-align: baseline; white-space-collapse: preserve;&quot;&gt;&lt;font&gt;The system should receive the input about the multiple destinations in a single route plan.&lt;/font&gt;&lt;/span&gt;&lt;/span&gt;&quot;&lt;/p&gt;" style="verticalAlign=top;align=left;overflow=fill;html=1;whiteSpace=wrap;" parent="1" vertex="1">
          <mxGeometry x="1125" y="647" width="180" height="120" as="geometry" />
        </mxCell>
        <mxCell id="dCrHYQqi8V4iQhvHre9M-3" style="edgeStyle=orthogonalEdgeStyle;rounded=0;orthogonalLoop=1;jettySize=auto;html=1;endArrow=circlePlus;endFill=0;" edge="1" parent="1" source="oBTIg1yz_-bCMmTLJF2G-67" target="oBTIg1yz_-bCMmTLJF2G-59">
          <mxGeometry relative="1" as="geometry">
            <Array as="points">
              <mxPoint x="1415" y="609" />
              <mxPoint x="1315" y="609" />
            </Array>
          </mxGeometry>
        </mxCell>
        <mxCell id="oBTIg1yz_-bCMmTLJF2G-67" value="&lt;p style=&quot;margin:0px;margin-top:4px;text-align:center;&quot;&gt;&lt;i&gt;&amp;lt;&amp;lt;requirement&amp;gt;&amp;gt;&lt;/i&gt;&lt;br&gt;&lt;b&gt;Route Optimization&lt;/b&gt;&lt;/p&gt;&lt;hr size=&quot;1&quot; style=&quot;border-style:solid;&quot;&gt;&lt;p style=&quot;margin:0px;margin-left:4px;&quot;&gt;Id=&quot;MSR-1.3&quot;&lt;/p&gt;&lt;p style=&quot;margin:0px;margin-left:4px;&quot;&gt;text=&quot;&lt;span id=&quot;docs-internal-guid-2a012562-7fff-c65e-30c2-a50c1538c789&quot;&gt;&lt;span style=&quot;font-family: Arial, sans-serif; background-color: transparent; font-variant-numeric: normal; font-variant-east-asian: normal; font-variant-alternates: normal; font-variant-position: normal; font-variant-emoji: normal; vertical-align: baseline; white-space-collapse: preserve;&quot;&gt;&lt;font&gt;The system shall optimize the route to minimize travel time or distance, based on user preference.&lt;/font&gt;&lt;/span&gt;&lt;/span&gt;&quot;&lt;/p&gt;" style="verticalAlign=top;align=left;overflow=fill;html=1;whiteSpace=wrap;" parent="1" vertex="1">
          <mxGeometry x="1325" y="647" width="180" height="120" as="geometry" />
        </mxCell>
        <mxCell id="dCrHYQqi8V4iQhvHre9M-4" style="edgeStyle=orthogonalEdgeStyle;rounded=0;orthogonalLoop=1;jettySize=auto;html=1;entryX=0.5;entryY=1;entryDx=0;entryDy=0;endArrow=circlePlus;endFill=0;" edge="1" parent="1" source="GaqSNqj7muHd74XYTbJo-58" target="oBTIg1yz_-bCMmTLJF2G-59">
          <mxGeometry relative="1" as="geometry">
            <Array as="points">
              <mxPoint x="1615" y="609" />
              <mxPoint x="1315" y="609" />
            </Array>
          </mxGeometry>
        </mxCell>
        <mxCell id="GaqSNqj7muHd74XYTbJo-58" value="&lt;p style=&quot;margin:0px;margin-top:4px;text-align:center;&quot;&gt;&lt;i&gt;&amp;lt;&amp;lt;requirement&amp;gt;&amp;gt;&lt;/i&gt;&lt;br&gt;&lt;b&gt;Edit Route Stops&lt;/b&gt;&lt;/p&gt;&lt;hr size=&quot;1&quot; style=&quot;border-style:solid;&quot;&gt;&lt;p style=&quot;margin:0px;margin-left:4px;&quot;&gt;Id=&quot;MSR-1.4&quot;&lt;/p&gt;&lt;p style=&quot;margin:0px;margin-left:4px;&quot;&gt;text=&quot;&lt;span id=&quot;docs-internal-guid-616035ec-7fff-21d3-86ee-f4348aab5200&quot;&gt;&lt;span style=&quot;font-family: Arial, sans-serif; background-color: transparent; font-variant-numeric: normal; font-variant-east-asian: normal; font-variant-alternates: normal; font-variant-position: normal; font-variant-emoji: normal; vertical-align: baseline; white-space-collapse: preserve;&quot;&gt;&lt;font&gt;The user shall be able to reorder, add, or remove stops.&lt;/font&gt;&lt;/span&gt;&lt;/span&gt;&quot;&lt;/p&gt;" style="verticalAlign=top;align=left;overflow=fill;html=1;whiteSpace=wrap;" parent="1" vertex="1">
          <mxGeometry x="1525" y="647" width="180" height="120" as="geometry" />
        </mxCell>
        <mxCell id="dCrHYQqi8V4iQhvHre9M-1" style="edgeStyle=orthogonalEdgeStyle;rounded=0;orthogonalLoop=1;jettySize=auto;html=1;entryX=0.5;entryY=1;entryDx=0;entryDy=0;endArrow=circlePlus;endFill=0;" edge="1" parent="1" source="oBTIg1yz_-bCMmTLJF2G-63" target="oBTIg1yz_-bCMmTLJF2G-59">
          <mxGeometry relative="1" as="geometry">
            <Array as="points">
              <mxPoint x="1015" y="609" />
              <mxPoint x="1315" y="609" />
            </Array>
          </mxGeometry>
        </mxCell>
        <mxCell id="oBTIg1yz_-bCMmTLJF2G-63" value="&lt;p style=&quot;margin:0px;margin-top:4px;text-align:center;&quot;&gt;&lt;i&gt;&amp;lt;&amp;lt;requirement&amp;gt;&amp;gt;&lt;/i&gt;&lt;br&gt;&lt;b&gt;Choose Starting Destination&lt;/b&gt;&lt;/p&gt;&lt;hr size=&quot;1&quot; style=&quot;border-style:solid;&quot;&gt;&lt;p style=&quot;margin:0px;margin-left:4px;&quot;&gt;Id=&quot;MSR-1.1&quot;&lt;/p&gt;&lt;p style=&quot;margin:0px;margin-left:4px;&quot;&gt;text=&quot;The system should receive the user input about the starting location of the route.&quot;&lt;/p&gt;" style="verticalAlign=top;align=left;overflow=fill;html=1;whiteSpace=wrap;" parent="1" vertex="1">
          <mxGeometry x="925" y="647" width="180" height="120" as="geometry" />
        </mxCell>
        <mxCell id="dCrHYQqi8V4iQhvHre9M-43" style="edgeStyle=orthogonalEdgeStyle;rounded=0;orthogonalLoop=1;jettySize=auto;html=1;entryX=0.5;entryY=0;entryDx=0;entryDy=0;endArrow=circlePlus;endFill=0;" edge="1" parent="1" source="R4GyRsjgA57VFeCBJdje-60" target="dCrHYQqi8V4iQhvHre9M-39">
          <mxGeometry relative="1" as="geometry" />
        </mxCell>
        <mxCell id="R4GyRsjgA57VFeCBJdje-60" value="&lt;p style=&quot;margin:0px;margin-top:4px;text-align:center;&quot;&gt;&lt;i&gt;&amp;lt;&amp;lt;requirement&amp;gt;&amp;gt;&lt;/i&gt;&lt;br&gt;&lt;b&gt;Fast Route Updates&lt;/b&gt;&lt;/p&gt;&lt;hr size=&quot;1&quot; style=&quot;border-style:solid;&quot;&gt;&lt;p style=&quot;margin:0px;margin-left:4px;&quot;&gt;Id=&quot;NFR-1.1&quot;&lt;/p&gt;&lt;p style=&quot;margin:0px;margin-left:4px;&quot;&gt;text=&quot;The system shall calculate and display route updates in under 3 seconds.&quot;&lt;/p&gt;" style="verticalAlign=top;align=left;overflow=fill;html=1;whiteSpace=wrap;" parent="1" vertex="1">
          <mxGeometry x="905" y="100" width="180" height="120" as="geometry" />
        </mxCell>
        <mxCell id="dCrHYQqi8V4iQhvHre9M-44" style="edgeStyle=orthogonalEdgeStyle;rounded=0;orthogonalLoop=1;jettySize=auto;html=1;entryX=0.5;entryY=0;entryDx=0;entryDy=0;endArrow=circlePlus;endFill=0;" edge="1" parent="1" source="R4GyRsjgA57VFeCBJdje-63" target="dCrHYQqi8V4iQhvHre9M-40">
          <mxGeometry relative="1" as="geometry" />
        </mxCell>
        <mxCell id="R4GyRsjgA57VFeCBJdje-63" value="&lt;p style=&quot;margin:0px;margin-top:4px;text-align:center;&quot;&gt;&lt;i&gt;&amp;lt;&amp;lt;requirement&amp;gt;&amp;gt;&lt;/i&gt;&lt;br&gt;&lt;b&gt;Responsive Interface&lt;/b&gt;&lt;/p&gt;&lt;hr size=&quot;1&quot; style=&quot;border-style:solid;&quot;&gt;&lt;p style=&quot;margin:0px;margin-left:4px;&quot;&gt;Id=&quot;NFR-2.1&quot;&lt;/p&gt;&lt;p style=&quot;margin:0px;margin-left:4px;&quot;&gt;text=&quot;The UI shall be responsive and intuitive on both Android and iOS platforms.&quot;&lt;/p&gt;" style="verticalAlign=top;align=left;overflow=fill;html=1;whiteSpace=wrap;" parent="1" vertex="1">
          <mxGeometry x="1105" y="100" width="180" height="120" as="geometry" />
        </mxCell>
        <mxCell id="dCrHYQqi8V4iQhvHre9M-45" style="edgeStyle=orthogonalEdgeStyle;rounded=0;orthogonalLoop=1;jettySize=auto;html=1;entryX=0.5;entryY=0;entryDx=0;entryDy=0;endArrow=circlePlus;endFill=0;" edge="1" parent="1" source="R4GyRsjgA57VFeCBJdje-64" target="dCrHYQqi8V4iQhvHre9M-40">
          <mxGeometry relative="1" as="geometry" />
        </mxCell>
        <mxCell id="R4GyRsjgA57VFeCBJdje-64" value="&lt;p style=&quot;margin:0px;margin-top:4px;text-align:center;&quot;&gt;&lt;i&gt;&amp;lt;&amp;lt;requirement&amp;gt;&amp;gt;&lt;/i&gt;&lt;br&gt;&lt;b&gt;Accessibility Support&lt;/b&gt;&lt;/p&gt;&lt;hr size=&quot;1&quot; style=&quot;border-style:solid;&quot;&gt;&lt;p style=&quot;margin:0px;margin-left:4px;&quot;&gt;Id=&quot;NFR-2.2&quot;&lt;/p&gt;&lt;p style=&quot;margin:0px;margin-left:4px;&quot;&gt;text=&quot;The system shall support accessibility features (e.g., voice navigation, screen readers).&quot;&lt;/p&gt;" style="verticalAlign=top;align=left;overflow=fill;html=1;whiteSpace=wrap;" parent="1" vertex="1">
          <mxGeometry x="1305" y="100" width="180" height="120" as="geometry" />
        </mxCell>
        <mxCell id="dCrHYQqi8V4iQhvHre9M-46" style="edgeStyle=orthogonalEdgeStyle;rounded=0;orthogonalLoop=1;jettySize=auto;html=1;endArrow=circlePlus;endFill=0;" edge="1" parent="1" source="R4GyRsjgA57VFeCBJdje-66" target="dCrHYQqi8V4iQhvHre9M-41">
          <mxGeometry relative="1" as="geometry" />
        </mxCell>
        <mxCell id="R4GyRsjgA57VFeCBJdje-66" value="&lt;p style=&quot;margin:0px;margin-top:4px;text-align:center;&quot;&gt;&lt;i&gt;&amp;lt;&amp;lt;requirement&amp;gt;&amp;gt;&lt;/i&gt;&lt;br&gt;&lt;b&gt;High Availability&lt;/b&gt;&lt;/p&gt;&lt;hr size=&quot;1&quot; style=&quot;border-style:solid;&quot;&gt;&lt;p style=&quot;margin:0px;margin-left:4px;&quot;&gt;Id=&quot;NFR-3.1&quot;&lt;/p&gt;&lt;p style=&quot;margin:0px;margin-left:4px;&quot;&gt;text=&quot;The system shall have 99.9% uptime.&quot;&lt;/p&gt;" style="verticalAlign=top;align=left;overflow=fill;html=1;whiteSpace=wrap;" parent="1" vertex="1">
          <mxGeometry x="1505" y="100" width="180" height="120" as="geometry" />
        </mxCell>
        <mxCell id="dCrHYQqi8V4iQhvHre9M-47" style="edgeStyle=orthogonalEdgeStyle;rounded=0;orthogonalLoop=1;jettySize=auto;html=1;entryX=0.5;entryY=0;entryDx=0;entryDy=0;endArrow=circlePlus;endFill=0;" edge="1" parent="1" source="R4GyRsjgA57VFeCBJdje-71" target="dCrHYQqi8V4iQhvHre9M-42">
          <mxGeometry relative="1" as="geometry" />
        </mxCell>
        <mxCell id="R4GyRsjgA57VFeCBJdje-71" value="&lt;p style=&quot;margin:0px;margin-top:4px;text-align:center;&quot;&gt;&lt;i&gt;&amp;lt;&amp;lt;requirement&amp;gt;&amp;gt;&lt;/i&gt;&lt;br&gt;&lt;b&gt;Data Encryption&lt;/b&gt;&lt;/p&gt;&lt;hr size=&quot;1&quot; style=&quot;border-style:solid;&quot;&gt;&lt;p style=&quot;margin:0px;margin-left:4px;&quot;&gt;Id=&quot;NFR-5.1&quot;&lt;/p&gt;&lt;p style=&quot;margin:0px;margin-left:4px;&quot;&gt;text=&quot;All user data, including vehicle and route preferences, shall be encrypted in transit and at rest.&quot;&lt;/p&gt;" style="verticalAlign=top;align=left;overflow=fill;html=1;whiteSpace=wrap;" parent="1" vertex="1">
          <mxGeometry x="1705" y="100" width="180" height="120" as="geometry" />
        </mxCell>
        <mxCell id="dCrHYQqi8V4iQhvHre9M-48" style="edgeStyle=orthogonalEdgeStyle;rounded=0;orthogonalLoop=1;jettySize=auto;html=1;entryX=0.5;entryY=0;entryDx=0;entryDy=0;endArrow=circlePlus;endFill=0;" edge="1" parent="1" source="dCrHYQqi8V4iQhvHre9M-39" target="oBTIg1yz_-bCMmTLJF2G-59">
          <mxGeometry relative="1" as="geometry">
            <Array as="points">
              <mxPoint x="995" y="430" />
              <mxPoint x="1315" y="430" />
            </Array>
          </mxGeometry>
        </mxCell>
        <mxCell id="dCrHYQqi8V4iQhvHre9M-39" value="&lt;p style=&quot;margin:0px;margin-top:4px;text-align:center;&quot;&gt;&lt;i&gt;&amp;lt;&amp;lt;requirement&amp;gt;&amp;gt;&lt;/i&gt;&lt;br&gt;&lt;b&gt;Performance&lt;/b&gt;&lt;/p&gt;&lt;hr size=&quot;1&quot; style=&quot;border-style:solid;&quot;&gt;&lt;p style=&quot;margin:0px;margin-left:4px;&quot;&gt;Id=&quot;NFR-1&quot;&lt;/p&gt;&lt;p style=&quot;margin:0px;margin-left:4px;&quot;&gt;text=&quot;The system shall be performant.&quot;&lt;/p&gt;" style="verticalAlign=top;align=left;overflow=fill;html=1;whiteSpace=wrap;" vertex="1" parent="1">
          <mxGeometry x="905" y="274" width="180" height="120" as="geometry" />
        </mxCell>
        <mxCell id="dCrHYQqi8V4iQhvHre9M-49" style="edgeStyle=orthogonalEdgeStyle;rounded=0;orthogonalLoop=1;jettySize=auto;html=1;endArrow=circlePlus;endFill=0;" edge="1" parent="1" source="dCrHYQqi8V4iQhvHre9M-40" target="oBTIg1yz_-bCMmTLJF2G-59">
          <mxGeometry relative="1" as="geometry">
            <Array as="points">
              <mxPoint x="1295" y="430" />
              <mxPoint x="1314" y="430" />
            </Array>
          </mxGeometry>
        </mxCell>
        <mxCell id="dCrHYQqi8V4iQhvHre9M-40" value="&lt;p style=&quot;margin:0px;margin-top:4px;text-align:center;&quot;&gt;&lt;i&gt;&amp;lt;&amp;lt;requirement&amp;gt;&amp;gt;&lt;/i&gt;&lt;br&gt;&lt;b&gt;Usability&lt;/b&gt;&lt;/p&gt;&lt;hr size=&quot;1&quot; style=&quot;border-style:solid;&quot;&gt;&lt;p style=&quot;margin:0px;margin-left:4px;&quot;&gt;Id=&quot;NFR-2&quot;&lt;/p&gt;&lt;p style=&quot;margin:0px;margin-left:4px;&quot;&gt;text=&quot;The system shall be usable.&quot;&lt;/p&gt;" style="verticalAlign=top;align=left;overflow=fill;html=1;whiteSpace=wrap;" vertex="1" parent="1">
          <mxGeometry x="1205" y="274" width="180" height="120" as="geometry" />
        </mxCell>
        <mxCell id="dCrHYQqi8V4iQhvHre9M-50" style="edgeStyle=orthogonalEdgeStyle;rounded=0;orthogonalLoop=1;jettySize=auto;html=1;entryX=0.5;entryY=0;entryDx=0;entryDy=0;endArrow=circlePlus;endFill=0;" edge="1" parent="1" source="dCrHYQqi8V4iQhvHre9M-41" target="oBTIg1yz_-bCMmTLJF2G-59">
          <mxGeometry relative="1" as="geometry">
            <Array as="points">
              <mxPoint x="1595" y="430" />
              <mxPoint x="1314" y="430" />
            </Array>
          </mxGeometry>
        </mxCell>
        <mxCell id="dCrHYQqi8V4iQhvHre9M-41" value="&lt;p style=&quot;margin:0px;margin-top:4px;text-align:center;&quot;&gt;&lt;i&gt;&amp;lt;&amp;lt;requirement&amp;gt;&amp;gt;&lt;/i&gt;&lt;br&gt;&lt;b&gt;Reliability&lt;/b&gt;&lt;/p&gt;&lt;hr size=&quot;1&quot; style=&quot;border-style:solid;&quot;&gt;&lt;p style=&quot;margin:0px;margin-left:4px;&quot;&gt;Id=&quot;NFR-3&quot;&lt;/p&gt;&lt;p style=&quot;margin:0px;margin-left:4px;&quot;&gt;text=&quot;The system shall be reliable.&quot;&lt;/p&gt;" style="verticalAlign=top;align=left;overflow=fill;html=1;whiteSpace=wrap;" vertex="1" parent="1">
          <mxGeometry x="1505" y="274" width="180" height="120" as="geometry" />
        </mxCell>
        <mxCell id="dCrHYQqi8V4iQhvHre9M-51" style="edgeStyle=orthogonalEdgeStyle;rounded=0;orthogonalLoop=1;jettySize=auto;html=1;endArrow=circlePlus;endFill=0;" edge="1" parent="1" source="dCrHYQqi8V4iQhvHre9M-42" target="oBTIg1yz_-bCMmTLJF2G-59">
          <mxGeometry relative="1" as="geometry">
            <Array as="points">
              <mxPoint x="1795" y="430" />
              <mxPoint x="1314" y="430" />
            </Array>
          </mxGeometry>
        </mxCell>
        <mxCell id="dCrHYQqi8V4iQhvHre9M-42" value="&lt;p style=&quot;margin:0px;margin-top:4px;text-align:center;&quot;&gt;&lt;i&gt;&amp;lt;&amp;lt;requirement&amp;gt;&amp;gt;&lt;/i&gt;&lt;br&gt;&lt;b&gt;Security&lt;/b&gt;&lt;/p&gt;&lt;hr size=&quot;1&quot; style=&quot;border-style:solid;&quot;&gt;&lt;p style=&quot;margin:0px;margin-left:4px;&quot;&gt;Id=&quot;NFR-5&quot;&lt;/p&gt;&lt;p style=&quot;margin:0px;margin-left:4px;&quot;&gt;text=&quot;The system shall be secure.&quot;&lt;/p&gt;" style="verticalAlign=top;align=left;overflow=fill;html=1;whiteSpace=wrap;" vertex="1" parent="1">
          <mxGeometry x="1705" y="274" width="180" height="120" as="geometry" />
        </mxCell>
      </root>
    </mxGraphModel>
  </diagram>
</mxfile>
